<?xml version="1.0" encoding="utf-8"?>
<svg version="1.1" id="Layer_1" xmlns="http://www.w3.org/2000/svg" xmlns:xlink="http://www.w3.org/1999/xlink" x="0px" y="0px"
	 viewBox="0 0 32 32" width="32px" height="32px" style="enable-background:new 0 0 32 32;" xml:space="preserve">
<style type="text/css">
	.st0{fill:#FFFFFF;}
	.st1{fill:#ADD136;}
	.st2{fill:#00AEEF;}
</style>
<path class="st0" d="M23.8,20.4l-8,4.6L8,20.5v-9.1l1.1-0.7c0.4,0.4,1,0.7,1.7,0.7c1.3,0,2.4-1.1,2.4-2.4c0-1.3-1.1-2.4-2.4-2.4
	c-1.3,0-2.4,1.1-2.4,2.4c0,0.2,0,0.4,0.1,0.6l-1.8,1v10.5l9.1,5.3l9.2-5.3L23.8,20.4z M10.8,7.8c0.7,0,1.3,0.6,1.3,1.3
	c0,0.7-0.6,1.3-1.3,1.3c-0.7,0-1.3-0.6-1.3-1.3C9.5,8.4,10.1,7.8,10.8,7.8z"/>
<path class="st0" d="M15.8,6.9l7.7,4.4l1.3-0.7l-9-5.2l-2.4,1.4C13.7,7.2,13.9,7.6,14,8L15.8,6.9z"/>
<path class="st1" d="M19.1,17.6l-3.3,1.9l-3-1.8v-3.5l3-1.8l2.7,1.6l1.3-0.7l-4-2.3l-4.2,2.4v4.9l4.2,2.4l4.5-2.6L19.1,17.6z"/>
<path class="st1" d="M29.7,8L15.8,0L2,8l1.3,0.7l12.6-7.3L27.2,8l-2,1.2l1.2,0.7l2.1-1.1h0v14.5l-1.6,0.9c-0.4-0.4-1-0.7-1.7-0.7
	c-1.3,0-2.4,1.1-2.4,2.4s1.1,2.4,2.4,2.4s2.4-1.1,2.4-2.4c0-0.2,0-0.4-0.1-0.6l2.3-1.3L29.7,8L29.7,8z M25.1,27.2
	c-0.7,0-1.3-0.6-1.3-1.3c0-0.7,0.6-1.3,1.3-1.3c0.7,0,1.3,0.6,1.3,1.3C26.5,26.6,25.9,27.2,25.1,27.2z"/>
<path class="st1" d="M21.9,27l-6.1,3.5L4.5,24l2-1.2l-1.3-0.7L2,24l13.8,8l6.7-3.9C22.3,27.8,22.1,27.4,21.9,27z"/>
<path class="st2" d="M25.1,24.5c0.7,0,1.3,0.6,1.3,1.3c0,0.7-0.6,1.3-1.3,1.3s-1.3-0.6-1.3-1.3C23.8,25.1,24.4,24.5,25.1,24.5z"/>
<path class="st2" d="M10.8,7.8c0.7,0,1.3,0.6,1.3,1.3c0,0.7-0.6,1.3-1.3,1.3c-0.7,0-1.3-0.6-1.3-1.3C9.5,8.4,10.1,7.8,10.8,7.8z"/>
</svg>
